<?xml version="1.0" standalone="no"?>
<!DOCTYPE svg PUBLIC "-//W3C//DTD SVG 20010904//EN"
 "http://www.w3.org/TR/2001/REC-SVG-20010904/DTD/svg10.dtd">
<svg version="1.0" xmlns="http://www.w3.org/2000/svg"
 width="1200.000000pt" height="1200.000000pt" viewBox="0 0 1200.000000 1200.000000"
 preserveAspectRatio="xMidYMid meet">
<metadata>
Created by potrace 1.11, written by Peter Selinger 2001-2013
</metadata>
<g transform="translate(0.000000,1200.000000) scale(0.100000,-0.100000)"
fill="#000000" stroke="none">
<path d="M3800 10100 l0 -1900 -1900 0 -1900 0 0 -200 0 -200 1900 0 1900 0 0
-1800 0 -1800 -1900 0 -1900 0 0 -200 0 -200 1900 0 1900 0 0 -1900 0 -1900
200 0 200 0 0 1900 0 1900 1800 0 1800 0 0 -1900 0 -1900 200 0 200 0 0 1900
0 1900 1900 0 1900 0 0 200 0 200 -1900 0 -1900 0 0 1800 0 1800 1900 0 1900
0 0 200 0 200 -1900 0 -1900 0 0 1900 0 1900 -200 0 -200 0 0 -1900 0 -1900
-1800 0 -1800 0 0 1900 0 1900 -200 0 -200 0 0 -1900z m4000 -4100 l0 -1800
-1800 0 -1800 0 0 1800 0 1800 1800 0 1800 0 0 -1800z"/>
<path d="M5868 7595 c-2 -1 -30 -6 -63 -9 -94 -10 -109 -13 -132 -20 -12 -4
-30 -8 -40 -10 -154 -30 -369 -124 -528 -231 -377 -256 -635 -673 -693 -1123
-14 -113 -7 -397 13 -487 75 -348 213 -610 440 -839 100 -100 200 -178 340
-264 111 -68 347 -157 470 -177 36 -6 71 -13 105 -21 57 -13 347 -12 439 2
145 22 327 72 400 110 14 8 31 14 37 14 5 0 59 28 120 63 431 246 709 637 800
1127 26 140 26 404 -1 550 -66 359 -252 688 -521 921 -85 74 -96 82 -178 137
-186 123 -409 208 -656 248 -37 6 -346 14 -352 9z m377 -420 c158 -33 333
-112 465 -208 82 -60 229 -212 281 -292 136 -205 198 -402 204 -640 6 -210
-34 -394 -122 -569 -137 -272 -373 -484 -658 -591 -74 -28 -127 -42 -235 -60
-96 -17 -321 -12 -418 9 -477 103 -831 457 -938 938 -30 135 -26 354 11 530
19 95 97 267 174 383 55 85 190 223 286 295 135 100 372 198 526 216 30 3 56
8 57 9 12 11 299 -5 367 -20z"/>
<path d="M9784 11585 c-119 -19 -211 -41 -310 -76 -454 -159 -812 -512 -977
-964 -66 -182 -91 -326 -91 -535 -1 -150 4 -219 19 -290 3 -14 8 -38 10 -55
26 -150 121 -376 229 -545 70 -109 220 -275 321 -355 28 -22 52 -42 55 -45 3
-3 37 -26 75 -51 214 -138 420 -217 665 -253 245 -36 594 5 808 96 469 197
803 562 942 1028 48 160 64 269 64 445 1 193 -5 247 -46 415 -46 188 -173 447
-283 579 -93 112 -130 151 -226 236 -146 129 -352 244 -555 309 -88 29 -101
32 -184 46 -30 6 -66 13 -80 16 -52 12 -356 11 -436 -1z m471 -413 c466 -105
817 -461 921 -934 21 -97 26 -321 9 -423 -76 -452 -382 -810 -815 -955 -244
-81 -546 -75 -785 15 -88 33 -222 105 -294 158 -53 38 -208 189 -241 233 -161
216 -239 440 -245 699 -6 217 27 367 120 560 169 350 495 593 885 659 111 19
335 13 445 -12z"/>
<path d="M600 7400 l-142 -142 626 -626 c344 -344 626 -628 626 -631 0 -3
-282 -288 -626 -632 l-626 -626 142 -143 142 -143 627 627 c344 344 629 626
632 626 3 0 288 -282 632 -626 l625 -626 142 142 142 142 -629 629 -628 629
629 629 629 629 -143 142 -143 142 -628 -628 c-345 -345 -631 -626 -633 -624
-3 3 -286 286 -630 629 l-624 623 -142 -142z"/>
<path d="M1777 3584 c-127 -20 -293 -64 -372 -99 -232 -102 -373 -196 -528
-350 -243 -240 -390 -521 -453 -865 -25 -136 -25 -434 1 -550 3 -14 8 -38 10
-55 17 -98 77 -265 135 -380 39 -76 132 -228 150 -245 3 -3 23 -27 45 -55 53
-66 125 -138 205 -205 36 -30 67 -57 70 -60 5 -5 123 -82 165 -108 24 -14 148
-76 155 -77 3 0 10 -3 16 -7 16 -11 142 -55 194 -68 62 -17 90 -23 150 -34 19
-3 46 -9 60 -12 55 -12 347 -12 430 1 148 23 161 26 254 55 501 156 882 526
1053 1025 57 167 78 304 78 510 -1 149 -4 184 -25 300 -88 469 -402 890 -833
1113 -144 75 -314 134 -457 157 -25 4 -54 9 -65 12 -50 11 -356 9 -438 -3z
m478 -412 c233 -53 417 -154 585 -322 52 -52 102 -104 110 -115 113 -155 186
-315 226 -497 21 -97 26 -321 9 -423 -30 -176 -95 -342 -192 -487 -62 -94
-228 -261 -318 -320 -227 -148 -447 -211 -710 -203 -77 3 -169 12 -205 20 -36
8 -75 18 -88 21 -44 9 -154 54 -225 91 -126 66 -187 112 -297 223 -47 47 -92
95 -100 106 -162 217 -240 439 -245 699 -4 169 9 268 57 410 60 180 146 321
277 455 130 133 247 213 401 277 85 36 211 71 285 79 28 4 52 8 53 9 2 2 68 2
145 1 98 -2 170 -10 232 -24z"/>
<path d="M8600 3400 l-142 -142 626 -626 c344 -344 626 -628 626 -631 0 -3
-282 -288 -626 -632 l-626 -626 142 -143 142 -143 627 627 c344 344 629 626
632 626 3 0 287 -282 632 -626 l625 -626 142 142 142 142 -621 622 c-341 341
-624 625 -628 629 -4 4 276 291 621 636 l629 629 -143 142 -143 142 -628 -628
c-345 -345 -632 -625 -636 -621 -4 4 -288 287 -629 628 l-622 621 -142 -142z"/>
</g>
</svg>
